<mxfile host="app.diagrams.net" agent="Mozilla/5.0 (Windows NT 10.0; Win64; x64) AppleWebKit/537.36 (KHTML, like Gecko) Chrome/134.0.0.0 Safari/537.36" version="25.0.3">
  <diagram id="C5RBs43oDa-KdzZeNtuy" name="Page-1">
    <mxGraphModel dx="1895" dy="870" grid="1" gridSize="10" guides="1" tooltips="1" connect="1" arrows="1" fold="1" page="1" pageScale="1" pageWidth="827" pageHeight="1169" math="0" shadow="0">
      <root>
        <mxCell id="WIyWlLk6GJQsqaUBKTNV-0" />
        <mxCell id="WIyWlLk6GJQsqaUBKTNV-1" parent="WIyWlLk6GJQsqaUBKTNV-0" />
        <mxCell id="4y7hBN5OUTRW11aEzW8F-31" style="edgeStyle=orthogonalEdgeStyle;rounded=0;orthogonalLoop=1;jettySize=auto;html=1;exitX=0.25;exitY=1;exitDx=0;exitDy=0;entryX=0.5;entryY=0;entryDx=0;entryDy=0;endArrow=blockThin;endFill=1;" parent="WIyWlLk6GJQsqaUBKTNV-1" source="zkfFHV4jXpPFQw0GAbJ--0" target="4y7hBN5OUTRW11aEzW8F-18" edge="1">
          <mxGeometry relative="1" as="geometry" />
        </mxCell>
        <mxCell id="4y7hBN5OUTRW11aEzW8F-32" style="edgeStyle=orthogonalEdgeStyle;rounded=0;orthogonalLoop=1;jettySize=auto;html=1;exitX=0.75;exitY=1;exitDx=0;exitDy=0;entryX=0.25;entryY=0;entryDx=0;entryDy=0;endArrow=blockThin;endFill=1;" parent="WIyWlLk6GJQsqaUBKTNV-1" source="zkfFHV4jXpPFQw0GAbJ--0" target="4y7hBN5OUTRW11aEzW8F-9" edge="1">
          <mxGeometry relative="1" as="geometry" />
        </mxCell>
        <mxCell id="zkfFHV4jXpPFQw0GAbJ--0" value="&lt;&lt;interface&gt;&gt;&#xa;IChessPiece" style="swimlane;fontStyle=2;align=center;verticalAlign=top;childLayout=stackLayout;horizontal=1;startSize=42;horizontalStack=0;resizeParent=1;resizeLast=0;collapsible=1;marginBottom=0;rounded=0;shadow=0;strokeWidth=1;" parent="WIyWlLk6GJQsqaUBKTNV-1" vertex="1">
          <mxGeometry x="329" y="510" width="170" height="221" as="geometry">
            <mxRectangle x="310" y="198" width="160" height="42" as="alternateBounds" />
          </mxGeometry>
        </mxCell>
        <mxCell id="zkfFHV4jXpPFQw0GAbJ--5" value="void Move()" style="text;align=left;verticalAlign=top;spacingLeft=4;spacingRight=4;overflow=hidden;rotatable=0;points=[[0,0.5],[1,0.5]];portConstraint=eastwest;" parent="zkfFHV4jXpPFQw0GAbJ--0" vertex="1">
          <mxGeometry y="42" width="170" height="27" as="geometry" />
        </mxCell>
        <mxCell id="4y7hBN5OUTRW11aEzW8F-34" value="void TakePiece(IChessPiece)" style="text;align=left;verticalAlign=top;spacingLeft=4;spacingRight=4;overflow=hidden;rotatable=0;points=[[0,0.5],[1,0.5]];portConstraint=eastwest;" parent="zkfFHV4jXpPFQw0GAbJ--0" vertex="1">
          <mxGeometry y="69" width="170" height="27" as="geometry" />
        </mxCell>
        <mxCell id="zkfFHV4jXpPFQw0GAbJ--17" value="ChessBoard" style="swimlane;fontStyle=0;align=center;verticalAlign=top;childLayout=stackLayout;horizontal=1;startSize=26;horizontalStack=0;resizeParent=1;resizeLast=0;collapsible=1;marginBottom=0;rounded=0;shadow=0;strokeWidth=1;" parent="WIyWlLk6GJQsqaUBKTNV-1" vertex="1">
          <mxGeometry x="560" y="546" width="160" height="217" as="geometry">
            <mxRectangle x="550" y="140" width="160" height="26" as="alternateBounds" />
          </mxGeometry>
        </mxCell>
        <mxCell id="zkfFHV4jXpPFQw0GAbJ--18" value="List&lt;ChessPiece&gt; board" style="text;align=left;verticalAlign=top;spacingLeft=4;spacingRight=4;overflow=hidden;rotatable=0;points=[[0,0.5],[1,0.5]];portConstraint=eastwest;" parent="zkfFHV4jXpPFQw0GAbJ--17" vertex="1">
          <mxGeometry y="26" width="160" height="27" as="geometry" />
        </mxCell>
        <mxCell id="zkfFHV4jXpPFQw0GAbJ--23" value="" style="line;html=1;strokeWidth=1;align=left;verticalAlign=middle;spacingTop=-1;spacingLeft=3;spacingRight=3;rotatable=0;labelPosition=right;points=[];portConstraint=eastwest;" parent="zkfFHV4jXpPFQw0GAbJ--17" vertex="1">
          <mxGeometry y="53" width="160" height="9" as="geometry" />
        </mxCell>
        <mxCell id="4y7hBN5OUTRW11aEzW8F-98" value="void PrintBoard()" style="text;align=left;verticalAlign=top;spacingLeft=4;spacingRight=4;overflow=hidden;rotatable=0;points=[[0,0.5],[1,0.5]];portConstraint=eastwest;" parent="zkfFHV4jXpPFQw0GAbJ--17" vertex="1">
          <mxGeometry y="62" width="160" height="27" as="geometry" />
        </mxCell>
        <mxCell id="4y7hBN5OUTRW11aEzW8F-2" value="Coordinate" style="swimlane;fontStyle=2;align=center;verticalAlign=top;childLayout=stackLayout;horizontal=1;startSize=26;horizontalStack=0;resizeParent=1;resizeLast=0;collapsible=1;marginBottom=0;rounded=0;shadow=0;strokeWidth=1;" parent="WIyWlLk6GJQsqaUBKTNV-1" vertex="1">
          <mxGeometry x="70" y="592" width="160" height="148" as="geometry">
            <mxRectangle x="230" y="140" width="160" height="26" as="alternateBounds" />
          </mxGeometry>
        </mxCell>
        <mxCell id="4y7hBN5OUTRW11aEzW8F-3" value="int X" style="text;align=left;verticalAlign=top;spacingLeft=4;spacingRight=4;overflow=hidden;rotatable=0;points=[[0,0.5],[1,0.5]];portConstraint=eastwest;" parent="4y7hBN5OUTRW11aEzW8F-2" vertex="1">
          <mxGeometry y="26" width="160" height="27" as="geometry" />
        </mxCell>
        <mxCell id="4y7hBN5OUTRW11aEzW8F-4" value="int Y" style="text;align=left;verticalAlign=top;spacingLeft=4;spacingRight=4;overflow=hidden;rotatable=0;points=[[0,0.5],[1,0.5]];portConstraint=eastwest;" parent="4y7hBN5OUTRW11aEzW8F-2" vertex="1">
          <mxGeometry y="53" width="160" height="27" as="geometry" />
        </mxCell>
        <mxCell id="4y7hBN5OUTRW11aEzW8F-5" value="" style="line;html=1;strokeWidth=1;align=left;verticalAlign=middle;spacingTop=-1;spacingLeft=3;spacingRight=3;rotatable=0;labelPosition=right;points=[];portConstraint=eastwest;" parent="4y7hBN5OUTRW11aEzW8F-2" vertex="1">
          <mxGeometry y="80" width="160" height="9" as="geometry" />
        </mxCell>
        <mxCell id="4y7hBN5OUTRW11aEzW8F-6" value="Coordinate GetCoord()" style="text;align=left;verticalAlign=top;spacingLeft=4;spacingRight=4;overflow=hidden;rotatable=0;points=[[0,0.5],[1,0.5]];portConstraint=eastwest;" parent="4y7hBN5OUTRW11aEzW8F-2" vertex="1">
          <mxGeometry y="89" width="160" height="27" as="geometry" />
        </mxCell>
        <mxCell id="4y7hBN5OUTRW11aEzW8F-7" value="void SetCoord(int x, int y)" style="text;align=left;verticalAlign=top;spacingLeft=4;spacingRight=4;overflow=hidden;rotatable=0;points=[[0,0.5],[1,0.5]];portConstraint=eastwest;" parent="4y7hBN5OUTRW11aEzW8F-2" vertex="1">
          <mxGeometry y="116" width="160" height="27" as="geometry" />
        </mxCell>
        <mxCell id="4y7hBN5OUTRW11aEzW8F-9" value="&lt;&lt;enumeration&gt;&gt;&#xa;Type" style="swimlane;fontStyle=0;align=center;verticalAlign=top;childLayout=stackLayout;horizontal=1;startSize=40;horizontalStack=0;resizeParent=1;resizeLast=0;collapsible=1;marginBottom=0;rounded=0;shadow=0;strokeWidth=1;" parent="WIyWlLk6GJQsqaUBKTNV-1" vertex="1">
          <mxGeometry x="390" y="768" width="160" height="232" as="geometry">
            <mxRectangle x="320" y="390" width="160" height="40" as="alternateBounds" />
          </mxGeometry>
        </mxCell>
        <mxCell id="4y7hBN5OUTRW11aEzW8F-10" value="None=0" style="text;align=left;verticalAlign=top;spacingLeft=4;spacingRight=4;overflow=hidden;rotatable=0;points=[[0,0.5],[1,0.5]];portConstraint=eastwest;" parent="4y7hBN5OUTRW11aEzW8F-9" vertex="1">
          <mxGeometry y="40" width="160" height="27" as="geometry" />
        </mxCell>
        <mxCell id="4y7hBN5OUTRW11aEzW8F-12" value="Pawn" style="text;align=left;verticalAlign=top;spacingLeft=4;spacingRight=4;overflow=hidden;rotatable=0;points=[[0,0.5],[1,0.5]];portConstraint=eastwest;" parent="4y7hBN5OUTRW11aEzW8F-9" vertex="1">
          <mxGeometry y="67" width="160" height="27" as="geometry" />
        </mxCell>
        <mxCell id="4y7hBN5OUTRW11aEzW8F-13" value="Knight" style="text;align=left;verticalAlign=top;spacingLeft=4;spacingRight=4;overflow=hidden;rotatable=0;points=[[0,0.5],[1,0.5]];portConstraint=eastwest;" parent="4y7hBN5OUTRW11aEzW8F-9" vertex="1">
          <mxGeometry y="94" width="160" height="27" as="geometry" />
        </mxCell>
        <mxCell id="4y7hBN5OUTRW11aEzW8F-15" value="Bishop" style="text;align=left;verticalAlign=top;spacingLeft=4;spacingRight=4;overflow=hidden;rotatable=0;points=[[0,0.5],[1,0.5]];portConstraint=eastwest;" parent="4y7hBN5OUTRW11aEzW8F-9" vertex="1">
          <mxGeometry y="121" width="160" height="27" as="geometry" />
        </mxCell>
        <mxCell id="4y7hBN5OUTRW11aEzW8F-16" value="Rook" style="text;align=left;verticalAlign=top;spacingLeft=4;spacingRight=4;overflow=hidden;rotatable=0;points=[[0,0.5],[1,0.5]];portConstraint=eastwest;" parent="4y7hBN5OUTRW11aEzW8F-9" vertex="1">
          <mxGeometry y="148" width="160" height="27" as="geometry" />
        </mxCell>
        <mxCell id="4y7hBN5OUTRW11aEzW8F-17" value="Queen" style="text;align=left;verticalAlign=top;spacingLeft=4;spacingRight=4;overflow=hidden;rotatable=0;points=[[0,0.5],[1,0.5]];portConstraint=eastwest;" parent="4y7hBN5OUTRW11aEzW8F-9" vertex="1">
          <mxGeometry y="175" width="160" height="27" as="geometry" />
        </mxCell>
        <mxCell id="4y7hBN5OUTRW11aEzW8F-14" value="King" style="text;align=left;verticalAlign=top;spacingLeft=4;spacingRight=4;overflow=hidden;rotatable=0;points=[[0,0.5],[1,0.5]];portConstraint=eastwest;" parent="4y7hBN5OUTRW11aEzW8F-9" vertex="1">
          <mxGeometry y="202" width="160" height="27" as="geometry" />
        </mxCell>
        <mxCell id="4y7hBN5OUTRW11aEzW8F-18" value="&lt;&lt;enumeration&gt;&gt;&#xa;Color" style="swimlane;fontStyle=0;align=center;verticalAlign=top;childLayout=stackLayout;horizontal=1;startSize=40;horizontalStack=0;resizeParent=1;resizeLast=0;collapsible=1;marginBottom=0;rounded=0;shadow=0;strokeWidth=1;" parent="WIyWlLk6GJQsqaUBKTNV-1" vertex="1">
          <mxGeometry x="110" y="808" width="160" height="101" as="geometry">
            <mxRectangle x="320" y="390" width="160" height="40" as="alternateBounds" />
          </mxGeometry>
        </mxCell>
        <mxCell id="4y7hBN5OUTRW11aEzW8F-19" value="White=0" style="text;align=left;verticalAlign=top;spacingLeft=4;spacingRight=4;overflow=hidden;rotatable=0;points=[[0,0.5],[1,0.5]];portConstraint=eastwest;" parent="4y7hBN5OUTRW11aEzW8F-18" vertex="1">
          <mxGeometry y="40" width="160" height="27" as="geometry" />
        </mxCell>
        <mxCell id="4y7hBN5OUTRW11aEzW8F-20" value="Black" style="text;align=left;verticalAlign=top;spacingLeft=4;spacingRight=4;overflow=hidden;rotatable=0;points=[[0,0.5],[1,0.5]];portConstraint=eastwest;" parent="4y7hBN5OUTRW11aEzW8F-18" vertex="1">
          <mxGeometry y="67" width="160" height="27" as="geometry" />
        </mxCell>
        <mxCell id="4y7hBN5OUTRW11aEzW8F-33" style="edgeStyle=orthogonalEdgeStyle;rounded=0;orthogonalLoop=1;jettySize=auto;html=1;exitX=0;exitY=0.5;exitDx=0;exitDy=0;entryX=0.812;entryY=0;entryDx=0;entryDy=0;entryPerimeter=0;endArrow=diamondThin;endFill=0;" parent="WIyWlLk6GJQsqaUBKTNV-1" target="4y7hBN5OUTRW11aEzW8F-2" edge="1">
          <mxGeometry relative="1" as="geometry">
            <mxPoint x="329" y="565.4999999999998" as="sourcePoint" />
          </mxGeometry>
        </mxCell>
        <mxCell id="4y7hBN5OUTRW11aEzW8F-39" value="Pawn" style="swimlane;fontStyle=2;align=center;verticalAlign=top;childLayout=stackLayout;horizontal=1;startSize=30;horizontalStack=0;resizeParent=1;resizeLast=0;collapsible=1;marginBottom=0;rounded=0;shadow=0;strokeWidth=1;" parent="WIyWlLk6GJQsqaUBKTNV-1" vertex="1">
          <mxGeometry x="60" y="50" width="170" height="170" as="geometry">
            <mxRectangle x="310" y="198" width="160" height="42" as="alternateBounds" />
          </mxGeometry>
        </mxCell>
        <mxCell id="4y7hBN5OUTRW11aEzW8F-40" value="enum Type" style="text;align=left;verticalAlign=top;spacingLeft=4;spacingRight=4;overflow=hidden;rotatable=0;points=[[0,0.5],[1,0.5]];portConstraint=eastwest;" parent="4y7hBN5OUTRW11aEzW8F-39" vertex="1">
          <mxGeometry y="30" width="170" height="26" as="geometry" />
        </mxCell>
        <mxCell id="4y7hBN5OUTRW11aEzW8F-41" value="enum Color" style="text;align=left;verticalAlign=top;spacingLeft=4;spacingRight=4;overflow=hidden;rotatable=0;points=[[0,0.5],[1,0.5]];portConstraint=eastwest;" parent="4y7hBN5OUTRW11aEzW8F-39" vertex="1">
          <mxGeometry y="56" width="170" height="26" as="geometry" />
        </mxCell>
        <mxCell id="4y7hBN5OUTRW11aEzW8F-42" value="Coordinate Location" style="text;align=left;verticalAlign=top;spacingLeft=4;spacingRight=4;overflow=hidden;rotatable=0;points=[[0,0.5],[1,0.5]];portConstraint=eastwest;" parent="4y7hBN5OUTRW11aEzW8F-39" vertex="1">
          <mxGeometry y="82" width="170" height="26" as="geometry" />
        </mxCell>
        <mxCell id="4y7hBN5OUTRW11aEzW8F-43" value="" style="line;html=1;strokeWidth=1;align=left;verticalAlign=middle;spacingTop=-1;spacingLeft=3;spacingRight=3;rotatable=0;labelPosition=right;points=[];portConstraint=eastwest;" parent="4y7hBN5OUTRW11aEzW8F-39" vertex="1">
          <mxGeometry y="108" width="170" height="8" as="geometry" />
        </mxCell>
        <mxCell id="4y7hBN5OUTRW11aEzW8F-44" value="void Move(int x, int y)" style="text;align=left;verticalAlign=top;spacingLeft=4;spacingRight=4;overflow=hidden;rotatable=0;points=[[0,0.5],[1,0.5]];portConstraint=eastwest;" parent="4y7hBN5OUTRW11aEzW8F-39" vertex="1">
          <mxGeometry y="116" width="170" height="26" as="geometry" />
        </mxCell>
        <mxCell id="4y7hBN5OUTRW11aEzW8F-45" value="void TakePiece(IChessPiece)" style="text;align=left;verticalAlign=top;spacingLeft=4;spacingRight=4;overflow=hidden;rotatable=0;points=[[0,0.5],[1,0.5]];portConstraint=eastwest;" parent="4y7hBN5OUTRW11aEzW8F-39" vertex="1">
          <mxGeometry y="142" width="170" height="26" as="geometry" />
        </mxCell>
        <mxCell id="4y7hBN5OUTRW11aEzW8F-90" style="edgeStyle=orthogonalEdgeStyle;rounded=0;orthogonalLoop=1;jettySize=auto;html=1;exitX=0;exitY=1;exitDx=0;exitDy=0;entryX=0;entryY=0;entryDx=0;entryDy=0;dashed=1;endArrow=block;endFill=0;" parent="WIyWlLk6GJQsqaUBKTNV-1" source="4y7hBN5OUTRW11aEzW8F-46" target="zkfFHV4jXpPFQw0GAbJ--0" edge="1">
          <mxGeometry relative="1" as="geometry" />
        </mxCell>
        <mxCell id="4y7hBN5OUTRW11aEzW8F-46" value="Knight" style="swimlane;fontStyle=2;align=center;verticalAlign=top;childLayout=stackLayout;horizontal=1;startSize=30;horizontalStack=0;resizeParent=1;resizeLast=0;collapsible=1;marginBottom=0;rounded=0;shadow=0;strokeWidth=1;" parent="WIyWlLk6GJQsqaUBKTNV-1" vertex="1">
          <mxGeometry x="290" y="60" width="170" height="170" as="geometry">
            <mxRectangle x="310" y="198" width="160" height="42" as="alternateBounds" />
          </mxGeometry>
        </mxCell>
        <mxCell id="4y7hBN5OUTRW11aEzW8F-47" value="enum Type" style="text;align=left;verticalAlign=top;spacingLeft=4;spacingRight=4;overflow=hidden;rotatable=0;points=[[0,0.5],[1,0.5]];portConstraint=eastwest;" parent="4y7hBN5OUTRW11aEzW8F-46" vertex="1">
          <mxGeometry y="30" width="170" height="26" as="geometry" />
        </mxCell>
        <mxCell id="4y7hBN5OUTRW11aEzW8F-48" value="enum Color" style="text;align=left;verticalAlign=top;spacingLeft=4;spacingRight=4;overflow=hidden;rotatable=0;points=[[0,0.5],[1,0.5]];portConstraint=eastwest;" parent="4y7hBN5OUTRW11aEzW8F-46" vertex="1">
          <mxGeometry y="56" width="170" height="26" as="geometry" />
        </mxCell>
        <mxCell id="4y7hBN5OUTRW11aEzW8F-49" value="Coordinate Location" style="text;align=left;verticalAlign=top;spacingLeft=4;spacingRight=4;overflow=hidden;rotatable=0;points=[[0,0.5],[1,0.5]];portConstraint=eastwest;" parent="4y7hBN5OUTRW11aEzW8F-46" vertex="1">
          <mxGeometry y="82" width="170" height="26" as="geometry" />
        </mxCell>
        <mxCell id="4y7hBN5OUTRW11aEzW8F-50" value="" style="line;html=1;strokeWidth=1;align=left;verticalAlign=middle;spacingTop=-1;spacingLeft=3;spacingRight=3;rotatable=0;labelPosition=right;points=[];portConstraint=eastwest;" parent="4y7hBN5OUTRW11aEzW8F-46" vertex="1">
          <mxGeometry y="108" width="170" height="8" as="geometry" />
        </mxCell>
        <mxCell id="4y7hBN5OUTRW11aEzW8F-51" value="void Move(int x, int y)" style="text;align=left;verticalAlign=top;spacingLeft=4;spacingRight=4;overflow=hidden;rotatable=0;points=[[0,0.5],[1,0.5]];portConstraint=eastwest;" parent="4y7hBN5OUTRW11aEzW8F-46" vertex="1">
          <mxGeometry y="116" width="170" height="26" as="geometry" />
        </mxCell>
        <mxCell id="4y7hBN5OUTRW11aEzW8F-52" value="void TakePiece(IChessPiece)" style="text;align=left;verticalAlign=top;spacingLeft=4;spacingRight=4;overflow=hidden;rotatable=0;points=[[0,0.5],[1,0.5]];portConstraint=eastwest;" parent="4y7hBN5OUTRW11aEzW8F-46" vertex="1">
          <mxGeometry y="142" width="170" height="26" as="geometry" />
        </mxCell>
        <mxCell id="4y7hBN5OUTRW11aEzW8F-53" value="Bishop" style="swimlane;fontStyle=2;align=center;verticalAlign=top;childLayout=stackLayout;horizontal=1;startSize=30;horizontalStack=0;resizeParent=1;resizeLast=0;collapsible=1;marginBottom=0;rounded=0;shadow=0;strokeWidth=1;" parent="WIyWlLk6GJQsqaUBKTNV-1" vertex="1">
          <mxGeometry x="499" y="50" width="170" height="170" as="geometry">
            <mxRectangle x="310" y="198" width="160" height="42" as="alternateBounds" />
          </mxGeometry>
        </mxCell>
        <mxCell id="4y7hBN5OUTRW11aEzW8F-54" value="enum Type" style="text;align=left;verticalAlign=top;spacingLeft=4;spacingRight=4;overflow=hidden;rotatable=0;points=[[0,0.5],[1,0.5]];portConstraint=eastwest;" parent="4y7hBN5OUTRW11aEzW8F-53" vertex="1">
          <mxGeometry y="30" width="170" height="26" as="geometry" />
        </mxCell>
        <mxCell id="4y7hBN5OUTRW11aEzW8F-55" value="enum Color" style="text;align=left;verticalAlign=top;spacingLeft=4;spacingRight=4;overflow=hidden;rotatable=0;points=[[0,0.5],[1,0.5]];portConstraint=eastwest;" parent="4y7hBN5OUTRW11aEzW8F-53" vertex="1">
          <mxGeometry y="56" width="170" height="26" as="geometry" />
        </mxCell>
        <mxCell id="4y7hBN5OUTRW11aEzW8F-56" value="Coordinate Location" style="text;align=left;verticalAlign=top;spacingLeft=4;spacingRight=4;overflow=hidden;rotatable=0;points=[[0,0.5],[1,0.5]];portConstraint=eastwest;" parent="4y7hBN5OUTRW11aEzW8F-53" vertex="1">
          <mxGeometry y="82" width="170" height="26" as="geometry" />
        </mxCell>
        <mxCell id="4y7hBN5OUTRW11aEzW8F-57" value="" style="line;html=1;strokeWidth=1;align=left;verticalAlign=middle;spacingTop=-1;spacingLeft=3;spacingRight=3;rotatable=0;labelPosition=right;points=[];portConstraint=eastwest;" parent="4y7hBN5OUTRW11aEzW8F-53" vertex="1">
          <mxGeometry y="108" width="170" height="8" as="geometry" />
        </mxCell>
        <mxCell id="4y7hBN5OUTRW11aEzW8F-58" value="void Move(int x, int y)" style="text;align=left;verticalAlign=top;spacingLeft=4;spacingRight=4;overflow=hidden;rotatable=0;points=[[0,0.5],[1,0.5]];portConstraint=eastwest;" parent="4y7hBN5OUTRW11aEzW8F-53" vertex="1">
          <mxGeometry y="116" width="170" height="26" as="geometry" />
        </mxCell>
        <mxCell id="4y7hBN5OUTRW11aEzW8F-59" value="void TakePiece(IChessPiece)" style="text;align=left;verticalAlign=top;spacingLeft=4;spacingRight=4;overflow=hidden;rotatable=0;points=[[0,0.5],[1,0.5]];portConstraint=eastwest;" parent="4y7hBN5OUTRW11aEzW8F-53" vertex="1">
          <mxGeometry y="142" width="170" height="26" as="geometry" />
        </mxCell>
        <mxCell id="4y7hBN5OUTRW11aEzW8F-60" value="Rook" style="swimlane;fontStyle=2;align=center;verticalAlign=top;childLayout=stackLayout;horizontal=1;startSize=30;horizontalStack=0;resizeParent=1;resizeLast=0;collapsible=1;marginBottom=0;rounded=0;shadow=0;strokeWidth=1;" parent="WIyWlLk6GJQsqaUBKTNV-1" vertex="1">
          <mxGeometry x="30" y="320" width="170" height="170" as="geometry">
            <mxRectangle x="310" y="198" width="160" height="42" as="alternateBounds" />
          </mxGeometry>
        </mxCell>
        <mxCell id="4y7hBN5OUTRW11aEzW8F-61" value="enum Type" style="text;align=left;verticalAlign=top;spacingLeft=4;spacingRight=4;overflow=hidden;rotatable=0;points=[[0,0.5],[1,0.5]];portConstraint=eastwest;" parent="4y7hBN5OUTRW11aEzW8F-60" vertex="1">
          <mxGeometry y="30" width="170" height="26" as="geometry" />
        </mxCell>
        <mxCell id="4y7hBN5OUTRW11aEzW8F-62" value="enum Color" style="text;align=left;verticalAlign=top;spacingLeft=4;spacingRight=4;overflow=hidden;rotatable=0;points=[[0,0.5],[1,0.5]];portConstraint=eastwest;" parent="4y7hBN5OUTRW11aEzW8F-60" vertex="1">
          <mxGeometry y="56" width="170" height="26" as="geometry" />
        </mxCell>
        <mxCell id="4y7hBN5OUTRW11aEzW8F-63" value="Coordinate Location" style="text;align=left;verticalAlign=top;spacingLeft=4;spacingRight=4;overflow=hidden;rotatable=0;points=[[0,0.5],[1,0.5]];portConstraint=eastwest;" parent="4y7hBN5OUTRW11aEzW8F-60" vertex="1">
          <mxGeometry y="82" width="170" height="26" as="geometry" />
        </mxCell>
        <mxCell id="4y7hBN5OUTRW11aEzW8F-64" value="" style="line;html=1;strokeWidth=1;align=left;verticalAlign=middle;spacingTop=-1;spacingLeft=3;spacingRight=3;rotatable=0;labelPosition=right;points=[];portConstraint=eastwest;" parent="4y7hBN5OUTRW11aEzW8F-60" vertex="1">
          <mxGeometry y="108" width="170" height="8" as="geometry" />
        </mxCell>
        <mxCell id="4y7hBN5OUTRW11aEzW8F-65" value="void Move(int x, int y)" style="text;align=left;verticalAlign=top;spacingLeft=4;spacingRight=4;overflow=hidden;rotatable=0;points=[[0,0.5],[1,0.5]];portConstraint=eastwest;" parent="4y7hBN5OUTRW11aEzW8F-60" vertex="1">
          <mxGeometry y="116" width="170" height="26" as="geometry" />
        </mxCell>
        <mxCell id="4y7hBN5OUTRW11aEzW8F-66" value="void TakePiece(IChessPiece)" style="text;align=left;verticalAlign=top;spacingLeft=4;spacingRight=4;overflow=hidden;rotatable=0;points=[[0,0.5],[1,0.5]];portConstraint=eastwest;" parent="4y7hBN5OUTRW11aEzW8F-60" vertex="1">
          <mxGeometry y="142" width="170" height="26" as="geometry" />
        </mxCell>
        <mxCell id="4y7hBN5OUTRW11aEzW8F-67" value="Queen" style="swimlane;fontStyle=2;align=center;verticalAlign=top;childLayout=stackLayout;horizontal=1;startSize=30;horizontalStack=0;resizeParent=1;resizeLast=0;collapsible=1;marginBottom=0;rounded=0;shadow=0;strokeWidth=1;" parent="WIyWlLk6GJQsqaUBKTNV-1" vertex="1">
          <mxGeometry x="620" y="350" width="170" height="170" as="geometry">
            <mxRectangle x="310" y="198" width="160" height="42" as="alternateBounds" />
          </mxGeometry>
        </mxCell>
        <mxCell id="4y7hBN5OUTRW11aEzW8F-68" value="enum Type" style="text;align=left;verticalAlign=top;spacingLeft=4;spacingRight=4;overflow=hidden;rotatable=0;points=[[0,0.5],[1,0.5]];portConstraint=eastwest;" parent="4y7hBN5OUTRW11aEzW8F-67" vertex="1">
          <mxGeometry y="30" width="170" height="26" as="geometry" />
        </mxCell>
        <mxCell id="4y7hBN5OUTRW11aEzW8F-69" value="enum Color" style="text;align=left;verticalAlign=top;spacingLeft=4;spacingRight=4;overflow=hidden;rotatable=0;points=[[0,0.5],[1,0.5]];portConstraint=eastwest;" parent="4y7hBN5OUTRW11aEzW8F-67" vertex="1">
          <mxGeometry y="56" width="170" height="26" as="geometry" />
        </mxCell>
        <mxCell id="4y7hBN5OUTRW11aEzW8F-70" value="Coordinate Location" style="text;align=left;verticalAlign=top;spacingLeft=4;spacingRight=4;overflow=hidden;rotatable=0;points=[[0,0.5],[1,0.5]];portConstraint=eastwest;" parent="4y7hBN5OUTRW11aEzW8F-67" vertex="1">
          <mxGeometry y="82" width="170" height="26" as="geometry" />
        </mxCell>
        <mxCell id="4y7hBN5OUTRW11aEzW8F-71" value="" style="line;html=1;strokeWidth=1;align=left;verticalAlign=middle;spacingTop=-1;spacingLeft=3;spacingRight=3;rotatable=0;labelPosition=right;points=[];portConstraint=eastwest;" parent="4y7hBN5OUTRW11aEzW8F-67" vertex="1">
          <mxGeometry y="108" width="170" height="8" as="geometry" />
        </mxCell>
        <mxCell id="4y7hBN5OUTRW11aEzW8F-72" value="void Move(int x, int y)" style="text;align=left;verticalAlign=top;spacingLeft=4;spacingRight=4;overflow=hidden;rotatable=0;points=[[0,0.5],[1,0.5]];portConstraint=eastwest;" parent="4y7hBN5OUTRW11aEzW8F-67" vertex="1">
          <mxGeometry y="116" width="170" height="26" as="geometry" />
        </mxCell>
        <mxCell id="4y7hBN5OUTRW11aEzW8F-73" value="void TakePiece(IChessPiece)" style="text;align=left;verticalAlign=top;spacingLeft=4;spacingRight=4;overflow=hidden;rotatable=0;points=[[0,0.5],[1,0.5]];portConstraint=eastwest;" parent="4y7hBN5OUTRW11aEzW8F-67" vertex="1">
          <mxGeometry y="142" width="170" height="26" as="geometry" />
        </mxCell>
        <mxCell id="4y7hBN5OUTRW11aEzW8F-95" style="edgeStyle=orthogonalEdgeStyle;rounded=0;orthogonalLoop=1;jettySize=auto;html=1;exitX=0.5;exitY=1;exitDx=0;exitDy=0;entryX=0.75;entryY=0;entryDx=0;entryDy=0;dashed=1;endArrow=block;endFill=0;" parent="WIyWlLk6GJQsqaUBKTNV-1" source="4y7hBN5OUTRW11aEzW8F-81" target="zkfFHV4jXpPFQw0GAbJ--0" edge="1">
          <mxGeometry relative="1" as="geometry" />
        </mxCell>
        <mxCell id="4y7hBN5OUTRW11aEzW8F-81" value="King" style="swimlane;fontStyle=2;align=center;verticalAlign=top;childLayout=stackLayout;horizontal=1;startSize=30;horizontalStack=0;resizeParent=1;resizeLast=0;collapsible=1;marginBottom=0;rounded=0;shadow=0;strokeWidth=1;" parent="WIyWlLk6GJQsqaUBKTNV-1" vertex="1">
          <mxGeometry x="340" y="250" width="170" height="220" as="geometry">
            <mxRectangle x="310" y="198" width="160" height="42" as="alternateBounds" />
          </mxGeometry>
        </mxCell>
        <mxCell id="4y7hBN5OUTRW11aEzW8F-82" value="enum Type" style="text;align=left;verticalAlign=top;spacingLeft=4;spacingRight=4;overflow=hidden;rotatable=0;points=[[0,0.5],[1,0.5]];portConstraint=eastwest;" parent="4y7hBN5OUTRW11aEzW8F-81" vertex="1">
          <mxGeometry y="30" width="170" height="26" as="geometry" />
        </mxCell>
        <mxCell id="4y7hBN5OUTRW11aEzW8F-83" value="enum Color" style="text;align=left;verticalAlign=top;spacingLeft=4;spacingRight=4;overflow=hidden;rotatable=0;points=[[0,0.5],[1,0.5]];portConstraint=eastwest;" parent="4y7hBN5OUTRW11aEzW8F-81" vertex="1">
          <mxGeometry y="56" width="170" height="26" as="geometry" />
        </mxCell>
        <mxCell id="4y7hBN5OUTRW11aEzW8F-84" value="Coordinate Location" style="text;align=left;verticalAlign=top;spacingLeft=4;spacingRight=4;overflow=hidden;rotatable=0;points=[[0,0.5],[1,0.5]];portConstraint=eastwest;" parent="4y7hBN5OUTRW11aEzW8F-81" vertex="1">
          <mxGeometry y="82" width="170" height="26" as="geometry" />
        </mxCell>
        <mxCell id="4y7hBN5OUTRW11aEzW8F-96" value="bool IsInCheck" style="text;align=left;verticalAlign=top;spacingLeft=4;spacingRight=4;overflow=hidden;rotatable=0;points=[[0,0.5],[1,0.5]];portConstraint=eastwest;" parent="4y7hBN5OUTRW11aEzW8F-81" vertex="1">
          <mxGeometry y="108" width="170" height="26" as="geometry" />
        </mxCell>
        <mxCell id="4y7hBN5OUTRW11aEzW8F-97" value="bool IsCheckmate" style="text;align=left;verticalAlign=top;spacingLeft=4;spacingRight=4;overflow=hidden;rotatable=0;points=[[0,0.5],[1,0.5]];portConstraint=eastwest;" parent="4y7hBN5OUTRW11aEzW8F-81" vertex="1">
          <mxGeometry y="134" width="170" height="26" as="geometry" />
        </mxCell>
        <mxCell id="4y7hBN5OUTRW11aEzW8F-85" value="" style="line;html=1;strokeWidth=1;align=left;verticalAlign=middle;spacingTop=-1;spacingLeft=3;spacingRight=3;rotatable=0;labelPosition=right;points=[];portConstraint=eastwest;" parent="4y7hBN5OUTRW11aEzW8F-81" vertex="1">
          <mxGeometry y="160" width="170" height="8" as="geometry" />
        </mxCell>
        <mxCell id="4y7hBN5OUTRW11aEzW8F-86" value="void Move(int x, int y)" style="text;align=left;verticalAlign=top;spacingLeft=4;spacingRight=4;overflow=hidden;rotatable=0;points=[[0,0.5],[1,0.5]];portConstraint=eastwest;" parent="4y7hBN5OUTRW11aEzW8F-81" vertex="1">
          <mxGeometry y="168" width="170" height="26" as="geometry" />
        </mxCell>
        <mxCell id="4y7hBN5OUTRW11aEzW8F-87" value="void TakePiece(IChessPiece)" style="text;align=left;verticalAlign=top;spacingLeft=4;spacingRight=4;overflow=hidden;rotatable=0;points=[[0,0.5],[1,0.5]];portConstraint=eastwest;" parent="4y7hBN5OUTRW11aEzW8F-81" vertex="1">
          <mxGeometry y="194" width="170" height="26" as="geometry" />
        </mxCell>
        <mxCell id="4y7hBN5OUTRW11aEzW8F-88" style="edgeStyle=orthogonalEdgeStyle;rounded=0;orthogonalLoop=1;jettySize=auto;html=1;exitX=0.75;exitY=1;exitDx=0;exitDy=0;entryX=-0.006;entryY=0.12;entryDx=0;entryDy=0;entryPerimeter=0;endArrow=block;endFill=0;dashed=1;" parent="WIyWlLk6GJQsqaUBKTNV-1" source="4y7hBN5OUTRW11aEzW8F-60" target="zkfFHV4jXpPFQw0GAbJ--0" edge="1">
          <mxGeometry relative="1" as="geometry" />
        </mxCell>
        <mxCell id="4y7hBN5OUTRW11aEzW8F-89" style="edgeStyle=orthogonalEdgeStyle;rounded=0;orthogonalLoop=1;jettySize=auto;html=1;exitX=0.997;exitY=1.033;exitDx=0;exitDy=0;entryX=-0.001;entryY=0.033;entryDx=0;entryDy=0;entryPerimeter=0;dashed=1;endArrow=block;endFill=0;exitPerimeter=0;" parent="WIyWlLk6GJQsqaUBKTNV-1" source="4y7hBN5OUTRW11aEzW8F-45" target="zkfFHV4jXpPFQw0GAbJ--0" edge="1">
          <mxGeometry relative="1" as="geometry" />
        </mxCell>
        <mxCell id="4y7hBN5OUTRW11aEzW8F-92" style="edgeStyle=orthogonalEdgeStyle;rounded=0;orthogonalLoop=1;jettySize=auto;html=1;exitX=0;exitY=0.5;exitDx=0;exitDy=0;entryX=0.992;entryY=0.136;entryDx=0;entryDy=0;entryPerimeter=0;dashed=1;endArrow=block;endFill=0;" parent="WIyWlLk6GJQsqaUBKTNV-1" source="4y7hBN5OUTRW11aEzW8F-73" target="zkfFHV4jXpPFQw0GAbJ--0" edge="1">
          <mxGeometry relative="1" as="geometry" />
        </mxCell>
        <mxCell id="4y7hBN5OUTRW11aEzW8F-93" style="edgeStyle=orthogonalEdgeStyle;rounded=0;orthogonalLoop=1;jettySize=auto;html=1;exitX=0.25;exitY=1;exitDx=0;exitDy=0;entryX=0.995;entryY=0.045;entryDx=0;entryDy=0;entryPerimeter=0;dashed=1;endArrow=block;endFill=0;" parent="WIyWlLk6GJQsqaUBKTNV-1" source="4y7hBN5OUTRW11aEzW8F-53" target="zkfFHV4jXpPFQw0GAbJ--0" edge="1">
          <mxGeometry relative="1" as="geometry" />
        </mxCell>
      </root>
    </mxGraphModel>
  </diagram>
</mxfile>
